<?xml version="1.0" encoding="utf-8"?>
<!-- Generator: Adobe Illustrator 18.0.0, SVG Export Plug-In . SVG Version: 6.00 Build 0)  -->
<!DOCTYPE svg PUBLIC "-//W3C//DTD SVG 1.1//EN" "http://www.w3.org/Graphics/SVG/1.1/DTD/svg11.dtd">
<svg version="1.1" id="Layer_1" xmlns="http://www.w3.org/2000/svg" xmlns:xlink="http://www.w3.org/1999/xlink" x="0px" y="0px"
	 viewBox="0 0 1322.9 2378.3" enable-background="new 0 0 1322.9 2378.3" xml:space="preserve">
<g>
	<path fill="#0000FF" d="M973.4,853.4h22.4V876v44.8v22.4h-22.4h-45h-22.4v-89.8h22.4H973.4z M973.4,876h-45v44.8h45V876z"/>
	<path fill="#0000FF" d="M832.2,41.2h22.4v22.6v44.8V131h-22.4h-45h-22.4V41.2h22.4H832.2z M832.2,63.8h-45v44.8h45V63.8z"/>
	<path fill="#0000FF" d="M147.6,808.5h22.4v22.6V876v22.4h-22.4h-45H80.2v-89.8h22.4H147.6z M147.6,831.1h-45V876h45V831.1z"/>
	<path fill="#0000FF" d="M896.2,1824.6h22.4v22.6v44.8v22.4h-22.4h-45h-22.4v-89.8h22.4H896.2z M896.2,1847.2h-45v44.8h45V1847.2z"
		/>
	<path fill="#0000FF" d="M117.3,2204.3h22.4v22.6v44.8v22.4h-22.4h-45H50v-89.8h22.4H117.3z M117.3,2226.9h-45v44.8h45V2226.9z"/>
	<path fill="#0000FF" d="M731.2,2086.9h22.4v22.6v44.8v22.4h-22.4h-45h-22.4v-89.8h22.4H731.2z M731.2,2109.5h-45v44.8h45V2109.5z"
		/>
	<path fill="#0000FF" d="M216.3,1813.7h22.4v22.6v44.8v22.4h-22.4h-45H149v-89.8h22.4H216.3z M216.3,1836.4h-45v44.8h45V1836.4z"/>
	<path fill="#0000FF" d="M1300.5,1427.2h22.4v22.6v44.8v22.4h-22.4h-45h-22.4v-89.8h22.4H1300.5z M1300.5,1449.8h-45v44.8h45V1449.8
		z"/>
	<path fill="#0000FF" d="M509.1,214.4h22.4V237v44.8v22.4h-22.4h-45h-22.4v-89.8h22.4H509.1z M509.1,237h-45v44.8h45V237z"/>
	<path fill="#0000FF" d="M380.2,1493.6h22.4v22.6v44.8v22.4h-22.4h-45h-22.4v-89.8h22.4H380.2z M380.2,1516.2h-45v44.8h45V1516.2z"
		/>
	<path fill="#0000FF" d="M774.1,1316.4h22.4v22.6v44.8v22.4h-22.4h-45h-22.4v-89.8h22.4H774.1z M774.1,1339h-45v44.8h45V1339z"/>
	<path fill="#0000FF" d="M1278,1067.4h22.4v22.4H1278V1067.4z"/>
	<path fill="#0000FF" d="M570.7,830.7H593V853h-22.4V830.7z"/>
	<path fill="#0000FF" d="M0,670.2h22.4v22.4H0V670.2z"/>
	<path fill="#0000FF" d="M38.8,236.9h22.4v22.4H38.8V236.9z"/>
	<path fill="#0000FF" d="M389.5,1359.7h22.4v22.4h-22.4V1359.7z"/>
	<path fill="#0000FF" d="M22.4,1594.7h22.4v22.4H22.4V1594.7z"/>
	<path fill="#0000FF" d="M559.5,1923.4h22.4v22.4h-22.4V1923.4z"/>
	<path fill="#0000FF" d="M145.7,1159.1H168v22.4h-22.4V1159.1z"/>
	<path fill="#0000FF" d="M1071.9,743.7h22.4V766h-22.4V743.7z"/>
	<path fill="#0000FF" d="M94.8,470.2h22.4v22.4H94.8V470.2z"/>
	<path fill="#0000FF" d="M1208.9,601.5h22.4v22.4h-22.4V601.5z"/>
	<path fill="#0000FF" d="M294.5,601.5h22.4v22.4h-22.4V601.5z"/>
	<path fill="#0000FF" d="M973.4,171.9h22.4v22.4h-22.4V171.9z"/>
	<path fill="#0000FF" d="M378.3,39.2h22.4v22.4h-22.4V39.2z"/>
	<path fill="#0000FF" d="M740.5,2324.1h22.4v22.4h-22.4V2324.1z"/>
	<path fill="#0000FF" d="M1164.1,2075.7h22.4v22.4h-22.4V2075.7z"/>
	<path fill="#0000FF" d="M326.5,2064.5h22.4v22.4h-22.4V2064.5z"/>
	<path fill="#0000FF" d="M939.7,1505.8h22.4v22.4h-22.4V1505.8z"/>
	<path fill="#0000FF" d="M1175.3,1298.3h22.4v22.4h-22.4V1298.3z"/>
	<g>
		<path fill="#0000FF" d="M751.6,577.6h-28.7v28.5h-28.5v-28.5h-28.7v-28.7h28.7v-28.9h28.5v28.9h28.7V577.6z"/>
	</g>
	<g>
		<path fill="#0000FF" d="M432.5,1817h-28.7v28.5h-28.5V1817h-28.7v-28.7h28.7v-28.9h28.5v28.9h28.7V1817z"/>
	</g>
	<g>
		<path fill="#0000FF" d="M1169,76.1h-28.7v28.5h-28.5V76.1H1083V47.4h28.7V18.5h28.5v28.9h28.7V76.1z"/>
	</g>
	<g>
		<path fill="#0000FF" d="M1263.1,262.6h-28.7v28.5h-28.5v-28.5h-28.7v-28.7h28.7V205h28.5v28.9h28.7V262.6z"/>
	</g>
	<g>
		<path fill="#0000FF" d="M149,1374.2h-28.7v28.5H91.7v-28.5H63v-28.7h28.7v-28.9h28.5v28.9H149V1374.2z"/>
	</g>
	<g>
		<path fill="#0000FF" d="M1040.1,2101.4h-28.7v28.5h-28.5v-28.5h-28.7v-28.7h28.7v-28.9h28.5v28.9h28.7V2101.4z"/>
	</g>
	<g>
		<path fill="#0000FF" d="M1218.2,1794.5h-28.7v28.5H1161v-28.5h-28.7v-28.7h28.7V1737h28.5v28.9h28.7V1794.5z"/>
	</g>
	<g>
		<path fill="#0000FF" d="M1276.2,2349.8h-28.7v28.5h-28.5v-28.5h-28.7v-28.7h28.7v-28.9h28.5v28.9h28.7V2349.8z"/>
	</g>
	<g>
		<path fill="#0000FF" d="M281.6,501.4h-28.7v28.5h-28.5v-28.5h-28.7v-28.7h28.7v-28.9h28.5v28.9h28.7V501.4z"/>
	</g>
	<g>
		<path fill="#0000FF" d="M1083,495.9h-28.7v28.5h-28.5v-28.5h-28.7v-28.7h28.7v-28.9h28.5v28.9h28.7V495.9z"/>
	</g>
	<g>
		<path fill="#0000FF" d="M211,57.6h-28.7v28.5h-28.5V57.6h-28.7V28.9h28.7V0h28.5v28.9H211V57.6z"/>
	</g>
	<g>
		<path fill="#0000FF" d="M1126,1082h-28.7v28.5h-28.5V1082h-28.7v-28.7h28.7v-28.9h28.5v28.9h28.7V1082z"/>
	</g>
	<g>
		<path fill="#0000FF" d="M529.6,1093.1h-28.7v28.5h-28.5v-28.5h-28.7v-28.7h28.7v-28.9h28.5v28.9h28.7V1093.1z"/>
	</g>
	<g>
		<path fill="#0000FF" d="M749.8,1669.4h-28.7v28.5h-28.5v-28.5h-28.7v-28.7h28.7v-28.9h28.5v28.9h28.7V1669.4z"/>
	</g>
	<g>
		<path fill="#0000FF" d="M423.6,2275.9h-28.7v28.5h-28.5v-28.5h-28.7v-28.7h28.7v-28.9h28.5v28.9h28.7V2275.9z"/>
	</g>
</g>
</svg>
